Coordinates
version=1
nRows=19
nColumns=36
inDegrees=yes

Units are S.I. units (second, meters, Newtons, ...)
If the header above contains a line with 'inDegrees', this indicates whether rotational values are in degrees (yes) or radians (no).

endheader
time	pelvis_tilt	pelvis_list	pelvis_rotation	pelvis_tx	pelvis_ty	pelvis_tz	hip_flexion_r	hip_adduction_r	hip_rotation_r	knee_angle_r	knee_angle_r_beta	ankle_angle_r	subtalar_angle_r	mtp_angle_r	hip_flexion_l	hip_adduction_l	hip_rotation_l	knee_angle_l	knee_angle_l_beta	ankle_angle_l	subtalar_angle_l	mtp_angle_l	lumbar_extension	lumbar_bending	lumbar_rotation	arm_flex_r	arm_add_r	arm_rot_r	elbow_flex_r	pro_sup_r	arm_flex_l	arm_add_l	arm_rot_l	elbow_flex_l	pro_sup_l
      0.00000000	     -8.60572969	      9.77473803	    -73.72354823	     -1.33480185	      1.15166673	     -0.20003255	     12.22027886	      9.60341513	      0.78667067	      4.86077139	      0.08483646	      1.53104121	      7.16826142	     -7.09001570	     10.00800421	     -5.28268993	     13.40132056	      6.63938044	      0.11587905	      4.32849194	    -23.65811568	     -7.09001570	     -0.80666969	      0.94964979	      2.22085354	      4.26985887	      4.58292459	    -16.20506407	     28.13707043	     89.88343827	      8.85173033	     -6.75225447	     20.37379889	     27.69932397	     77.50398810
      0.01666670	     -6.67449458	      8.71414382	    -77.28496274	     -1.33546271	      1.15049598	     -0.19832572	     10.59414183	      8.03350272	      1.90241361	      5.50509255	      0.09608199	      4.59835150	     15.79904793	     -7.10182878	      8.20150489	     -2.90285355	     16.51628590	      7.82746791	      0.13661509	      2.10385677	    -30.18157602	     -7.10182878	     -4.08293626	     -1.17058918	      5.52815607	      4.98062426	      3.06016978	    -17.82981669	     20.70087082	     90.19552493	     10.93172368	     -6.68034841	     20.08187744	     27.31460825	     77.91885768
      0.03333330	     -5.64928593	      9.44969142	    -78.40693881	     -1.33529707	      1.14919020	     -0.19322249	     11.13308089	      6.74504126	      0.83628954	      6.26720084	      0.10938329	      5.44957412	     20.06917488	     -7.31464363	      8.78731068	     -1.23797560	     19.32924825	      9.49160665	      0.16565979	      2.01941269	    -32.90672411	     -7.31464363	     -3.01587728	     -1.95962156	      4.73939247	     10.02739049	      5.20518488	      3.59857526	     17.31357535	     90.06989523	      9.89961453	     -6.28138493	     19.97394552	     25.43728418	     79.84282554
      0.05000000	     -5.40817427	      9.45820905	    -79.42244609	     -1.33516633	      1.15025896	     -0.18935842	     11.33283984	      6.59054995	     -0.23898002	      7.16763045	      0.12509875	      5.50886990	     22.59459946	     -7.39336518	      9.28081555	     -0.49521612	     21.32330908	     11.73426614	      0.20480158	      2.93310523	    -33.88196814	     -7.39336518	     -3.31659389	     -1.82190556	      5.64433661	     11.29517421	      6.38991457	      8.57425472	     19.11817017	     88.43548006	     10.19690048	     -5.81050770	     19.39157202	     25.35650913	     80.53622499
      0.06666670	     -5.43368726	      9.41226553	    -80.33612177	     -1.33544024	      1.15148288	     -0.18587735	     11.71741675	      6.43320022	     -1.67536164	      8.56681601	      0.14951915	      6.09623907	     25.49006515	     -7.46077717	     10.12598149	      0.27732277	     22.96150783	     14.64537422	      0.25561000	      4.77303467	    -34.22153402	     -7.46077717	     -3.51739922	     -1.62906656	      5.88199420	      9.74283044	      5.15159061	      5.79978172	     15.98486440	     84.03797053	     10.51982143	     -6.17215781	     19.28007171	     25.80775990	     81.73213113
      0.08333330	     -5.44516496	      9.67218923	    -80.98940397	     -1.33607619	      1.15116421	     -0.18298087	     12.35237069	      6.12559209	     -2.88536981	      9.68148699	      0.16897382	      6.48580300	     28.16521403	     -7.49114935	     11.31918272	      1.21240295	     24.16738086	     17.35044311	      0.30282236	      6.30776695	    -34.37800361	     -7.49114935	     -3.42312352	     -1.25250226	      6.78030067	     11.36787774	      6.58618684	     12.10400930	     16.76735954	     82.99814997	     10.07243787	     -6.41149135	     20.99965647	     27.06658856	     81.47364646
      0.10000000	     -5.50840591	      9.54601477	    -81.74802575	     -1.33532365	      1.14963865	     -0.18065096	     12.34880678	      6.09376705	     -2.89851196	     10.50498142	      0.18334651	      7.08852521	     29.72587834	     -7.50010141	     12.12496628	      2.27608042	     25.06365196	     19.77889876	      0.34520691	      7.05366573	    -34.44321388	     -7.50010141	     -3.68915300	     -0.75634127	      7.49959051	      9.99257338	      5.56126505	      7.60187114	     15.79827922	     81.14638713	     10.61417150	     -6.19945533	     20.87878883	     27.16995288	     84.58534685
      0.11666670	     -5.58145614	      9.37597177	    -82.51943522	     -1.33234505	      1.14701057	     -0.17869537	     12.40017023	      6.09443494	     -2.99231831	     11.61079406	      0.20264659	      8.12633855	     30.29877408	     -7.50005689	     12.78572539	      3.54194245	     25.46897472	     21.60650051	      0.37710457	      7.09854934	    -34.45005639	     -7.50005689	     -4.04260302	     -0.02781600	      8.15102571	      9.64548725	      4.86947850	      7.41059493	     14.24933746	     81.54062725	     10.64493628	     -6.12972262	     21.63347966	     27.90880007	     84.61801006
      0.13333330	     -5.69041995	      9.19203636	    -83.25080177	     -1.33299954	      1.14411195	     -0.17556761	     12.38744852	      6.42409809	     -3.31290204	     12.72777884	      0.22214165	      9.34287874	     29.65807201	     -7.50005562	     13.31546670	      4.68225481	     25.25387560	     22.85260566	      0.39885321	      6.49711080	    -34.42184028	     -7.50005562	     -4.46068794	      0.66993767	      8.92319426	      9.46750292	      4.43414975	      7.34428842	     13.81608192	     81.41289793	     10.78517318	     -5.83093943	     21.67151769	     28.53352023	     84.59176834
      0.15000000	     -5.73175047	      9.12338665	    -83.93074080	     -1.33400553	      1.14315339	     -0.17109342	     12.34033798	      6.87664786	     -3.30566577	     13.61713570	      0.23766385	     10.41387387	     28.12252705	     -7.50005348	     13.90563215	      5.61644694	     24.23483883	     23.74537820	      0.41443503	      5.79419504	    -34.37558620	     -7.50005348	     -4.63713839	      1.19079095	      9.80658142	      9.48511787	      4.30080800	      7.39567667	     13.06683120	     81.35763490	     10.96327319	     -5.63810444	     21.92515236	     29.06506038	     84.89098464
      0.16666670	     -5.76986670	      8.91725563	    -84.13889038	     -1.33553468	      1.14290556	     -0.16580671	     11.82271916	      7.31830107	     -2.28718829	     13.64513482	      0.23815253	     10.80236362	     25.23776569	     -7.50004743	     14.30612472	      6.25957180	     22.88950838	     24.40169651	      0.42588995	      4.89334546	    -34.32517319	     -7.50004743	     -4.75844095	      1.68875685	     10.28470510	      9.67587187	      4.51867436	      7.64373347	     12.47061369	     80.98948121	     11.26403832	     -5.64297878	     23.01539203	     29.17212414	     85.04604239
      0.18333330	     -5.67446429	      8.68969957	    -84.20142390	     -1.33603045	      1.14211610	     -0.16196733	     11.15849460	      7.30882243	      0.04115954	     13.07427664	      0.22818917	     10.43127764	     21.22226368	     -7.50003694	     14.76039564	      6.86164266	     21.03720826	     24.97977099	      0.43597925	      3.36597491	    -34.23380603	     -7.50003694	     -4.87800098	      2.06244249	     10.61814718	     10.00922834	      4.72360364	      9.51190367	     12.14637800	     80.23186495	     11.58747917	     -5.64873590	     24.21451239	     29.26005691	     84.60218229
      0.20000000	     -5.54700801	      8.77062531	    -84.08821431	     -1.33676119	      1.14015685	     -0.15942123	     10.96980036	      6.89360642	      2.98602115	     12.58595262	      0.21966631	      9.41149322	     15.97978298	     -7.50003038	     15.58183196	      7.51176600	     19.03670938	     25.29018589	      0.44139701	      0.85995624	    -34.02650639	     -7.50003038	     -4.42004480	      2.22741959	     10.11789341	     10.62523881	      5.45169877	     10.63568450	     14.76853783	     80.12816281	     11.38243698	     -6.03186502	     24.00001966	     30.46289188	     84.47540717
      0.21666670	     -5.71634204	      8.71952323	    -84.12010276	     -1.33651068	      1.13672784	     -0.15581640	     10.97659588	      6.66080806	      5.75854768	     12.84807212	      0.22424116	      8.09688317	      9.85180648	     -7.50002439	     16.46952473	      7.91807559	     16.43721919	     25.63883145	      0.44748203	     -2.02524681	    -33.39732786	     -7.50002439	     -4.56939983	      3.07718017	     10.24201066	     11.01340162	      5.88931126	     11.25515680	     16.33241299	     80.13899923	     11.51467087	     -5.93526687	     24.40189672	     30.57700421	     83.99060019
      0.23333330	     -6.32911762	      8.72581369	    -84.06740918	     -1.33357765	      1.13269415	     -0.15308073	     11.40683959	      6.82981425	      7.87288651	     14.06115151	      0.24541339	      6.79186148	      3.33768822	     -7.50001126	     17.61730352	      8.04728777	     13.09276801	     25.95918547	      0.45307326	     -4.06501981	    -30.93206675	     -7.50001126	     -4.67562105	      4.48812304	     10.16665344	     11.70983881	      6.18206504	     12.69800940	     17.89259570	     84.84233062	     11.24559198	     -5.77710174	     23.44047070	     31.22115192	     88.08256561
      0.25000000	     -7.41129833	      9.03551227	    -84.00673043	     -1.32986288	      1.12877827	     -0.14905858	     12.36127821	      7.88191889	      9.91696281	     16.04511076	      0.28004001	      5.77993625	     -2.61594757	     -7.50000472	     19.17130948	      7.68246069	      8.27154994	     26.25082493	      0.45816333	     -3.94863548	    -24.66042990	     -7.50000472	     -3.95978919	      6.08110675	     10.00998150	      9.84464261	      5.56278183	      3.57412189	     23.66751678	     89.81302528	     11.01404320	     -5.41851159	     22.58009508	     31.63797468	     90.38800611
      0.26666670	     -9.12349853	      8.98257526	    -83.78725545	     -1.32811692	      1.12568831	     -0.14458676	     13.01292373	     10.37211370	     11.40159111	     18.60294510	      0.32468264	      6.37222408	     -5.32048359	     -7.50000394	     20.51652707	      6.63722602	      2.63044751	     26.82572287	      0.46819719	     -3.80362553	    -17.21597542	     -7.50000394	     -4.00856404	      8.68784221	     10.37658225	     10.12623251	      5.70884814	      4.97813924	     24.75406726	     88.82049252	     10.84282927	     -4.86685486	     22.79694296	     31.39137956	     88.47422137
      0.28333330	    -11.18374156	      8.95716174	    -83.11949159	     -1.32902564	      1.12375938	     -0.13869224	     13.53065507	     13.89658933	     12.48705641	     20.79583098	      0.36295572	      9.00572664	     -3.65065813	     -7.50000345	     21.65654726	      5.16209812	     -3.33467371	     27.24494161	      0.47551394	     -4.63790087	    -10.21668576	     -7.50000345	     -3.03187937	     11.22856335	      8.59156478	      8.58316869	      4.25808179	      3.09805673	     30.18560277	     86.82742029	      9.64311989	     -4.99947717	     21.48290991	     32.49769413	     86.37214740
      0.30000000	    -13.27716735	      8.50876261	    -82.45774233	     -1.33107612	      1.12206156	     -0.13185851	     13.36177825	     17.74198998	     13.57250714	     22.13872494	      0.38639364	     11.87088406	     -0.75744327	     -7.50000159	     22.12592791	      3.42518771	     -9.45857767	     27.38164130	      0.47789980	     -6.27005268	     -4.17198686	     -7.50000159	     -3.11806609	     13.57583081	      9.88360867	      4.00318088	      4.48359130	    -10.36484118	     41.37006335	     98.43321819	     10.22553114	     -3.91908367	     20.27238123	     31.73967349	     90.75157992
